<svg width="311" height="222" viewBox="0 0 311 222" fill="none" xmlns="http://www.w3.org/2000/svg">
<path d="M147.745 93.352C162.39 94.162 177.895 92.9255 192.59 93.386C200.535 93.635 213.625 91.802 219.555 97.6925C236.445 114.479 211.11 135.487 200.095 147.684C187.5 161.734 174.82 175.708 162.055 189.605C185.125 189.628 206.97 191.406 228.285 180.826C245.94 172.066 256.76 160.816 268.515 145.478C263.95 158.208 259.1 168.382 250.87 179.321C249.58 181.103 248.22 182.835 246.795 184.513C221.375 214.944 192.21 221.532 154.78 219.545C147.15 219.14 140.11 219.997 132.285 218.878C117.445 216.754 114.863 200.526 122.064 189.524C129.03 179.3 137.96 170.233 146.29 161.048L180.915 122.589L132.76 122.601C139.815 112.301 138.995 103.782 132.93 93.4514L147.745 93.352Z" fill="#0166BB"/>
<path d="M14.9732 93.6649C38.6577 90.9179 34.2647 116.45 34.2242 132.161L34.1242 167.756C34.1082 173.466 33.7202 180.038 34.8792 185.594C35.8812 190.399 40.9202 193.82 45.8112 192.15C54.3342 189.241 52.0877 179.108 52.3932 172.125C52.3817 154.042 50.4512 136.597 59.6212 120.071C68.9162 102.974 86.4412 93.6729 105.648 93.4344C115.152 93.3164 125.744 92.6729 128.804 104.443C129.804 108.218 129.234 112.237 127.228 115.587C124.881 119.494 121.836 121.445 117.529 122.557C112.257 122.633 105.439 122.539 100.525 124.054C76.4197 131.488 85.9262 168.159 83.1317 188.87C82.5322 193.551 81.0817 198.083 78.8512 202.243C74.0127 211.294 66.4272 216.692 56.7867 219.595C45.2477 223.049 32.8142 221.842 22.1552 216.234C13.7657 211.656 7.53469 203.939 4.82719 194.773C3.96769 191.831 3.44618 188.8 3.27418 185.739C2.50768 173.82 3.60869 157.731 3.19319 145.233C3.35819 132.314 2.7922 119.278 3.3907 106.376C3.6987 99.7349 9.09419 95.2979 14.9732 93.6649Z" fill="#0055B1"/>
<path d="M201.659 0.364039C203.779 0.0190385 206.264 0.0720381 208.384 0.0245381C257.049 -1.06446 298.264 34.2175 308.429 81.1995C310.529 90.9105 314.114 118.766 295.689 104.705C293.969 99.2665 294.304 95.959 293.604 90.3615C292.314 80.024 288.364 66.8555 282.714 58.115C276.479 47.299 269.659 39.49 259.549 31.9985C239.399 17.042 213.609 11.904 189.264 17.9975C176.664 21.2335 168.144 26.9085 157.474 33.9C152.774 36.98 145.424 35.912 144.854 29.33C144.194 21.6735 151.484 18.0195 157.034 14.7475C170.749 6.67104 185.724 1.71454 201.659 0.364039Z" fill="#3BE8EC"/>
<path d="M202.05 30.2886C208.805 28.5166 224.725 30.8591 231.995 33.3656C250.4 39.6796 265.485 53.1276 273.865 70.6836C278.03 79.2391 282.825 93.3676 280.41 102.98C279.37 109.506 267.97 109.151 266.495 104.316C263.92 95.8826 263.685 88.0266 260.455 79.4076C247.95 52.0151 222.685 41.0276 193.74 47.6321C186.44 49.2986 170.815 63.4096 166.075 57.4551C152.745 40.7106 194.11 31.0406 202.05 30.2886Z" fill="#23D6EF"/>
<path d="M250.6 189.993C251.385 188.162 257.125 181.461 259.025 178.644C266.75 167.179 272.825 154.758 276.91 141.551C277.88 138.429 279.405 130.059 282.15 129.037C284.645 128.108 303.16 128.122 304.66 128.735C305.52 131.133 303.1 136.71 302.125 139.207C294.11 159.795 281.68 178.066 264.675 192.306C261.48 194.978 256.745 199.27 252.865 200.856C246.47 206.297 229.045 212.624 220.555 215.55C224.34 212.507 229.365 209.741 233.375 206.616C239.755 201.644 245 195.82 250.6 189.993Z" fill="#23D6EF"/>
<path d="M220.555 215.55C224.34 212.507 229.365 209.741 233.375 206.616C239.755 201.644 245 195.82 250.6 189.993C248.78 196.708 236.265 203.71 236.48 207.535C239.11 208.236 239.89 206.16 242.68 205.505C246.295 204.658 248.83 200.804 252.865 200.856C246.47 206.297 229.045 212.624 220.555 215.55Z" fill="#23D6EF"/>
<path d="M205.219 60.2625C215.029 59.3035 223.344 61.0445 231.794 66.318C241.269 72.3225 248.189 82.205 250.729 93.116C251.899 98.1365 252.339 106.555 245.669 107.838C243.494 108.257 240.349 108.084 238.589 106.592C235.974 104.374 235.449 100.132 234.949 96.9685C234.839 96.361 234.719 95.7555 234.589 95.1525C231.399 80.4325 214.664 71.825 200.359 77.379C197.709 78.4085 194.989 80.87 192.134 81.475C188.004 82.35 183.039 79.401 182.334 75.117C181.459 64.675 197.484 61.429 205.219 60.2625Z" fill="#1BC1EE"/>
<path d="M14.9649 46.6665C24.8749 44.8005 34.4349 51.2755 36.3789 61.1705C38.3224 71.065 31.9219 80.6755 22.0429 82.6965C12.0539 84.74 2.31292 78.253 0.347921 68.2485C-1.61758 58.2435 4.94539 48.554 14.9649 46.6665Z" fill="#23D6EF"/>
</svg>
